<?xml version="1.0" encoding="UTF-8" standalone="no"?>
<!DOCTYPE svg PUBLIC "-//W3C//DTD SVG 1.1//EN" "http://www.w3.org/Graphics/SVG/1.1/DTD/svg11.dtd">
<svg width="100%" height="100%" viewBox="0 0 147 139" version="1.1" xmlns="http://www.w3.org/2000/svg" xmlns:xlink="http://www.w3.org/1999/xlink" xml:space="preserve" xmlns:serif="http://www.serif.com/" style="fill-rule:evenodd;clip-rule:evenodd;stroke-linejoin:round;stroke-miterlimit:2;">
    <g transform="matrix(1,0,0,1,-242.587493,-384.869652)">
        <g transform="matrix(0.716605,0,0,0.716605,140.820049,356.617311)">
            <path d="M330.253,75.939C338.382,81.71 338.987,82.654 345.848,130.442C349.854,158.344 343.712,157.63 332.819,183.643C323.22,206.566 323.918,207.299 317.608,211.855L316.5,210.493C273.65,183.306 274.665,179.564 271.335,181.055C245.167,192.771 250.309,198.724 234.562,222.534C232.012,226.39 233.054,227.048 229.241,229.664C221.296,198.129 234.442,160.306 203.545,155.261C170.281,149.83 147.016,151.959 142.044,143.688C154.624,138.587 154.131,137.598 167.398,134.161C176.402,131.828 183.451,119.046 195.435,114.557C207.294,127.76 212.179,122.753 225.959,143.201C227.453,145.419 227.454,145.267 246.138,169.862C247.846,168.371 251.479,165.201 272.477,159.427C291.971,154.066 295.908,113.51 300.608,106.57C307.018,97.104 327.039,78.893 329.5,76.654L330.253,75.939Z" style="fill:rgb(42,47,53);"/>
            <path d="M241.338,40.192C248.022,38.479 248.134,39.206 265.361,46.837C292.501,58.859 325.07,73.594 330.253,75.939L329.5,76.654C327.039,78.893 307.018,97.104 300.608,106.57C295.908,113.51 291.971,154.066 272.477,159.427C251.479,165.201 247.846,168.371 246.138,169.862C227.454,145.267 227.453,145.419 225.959,143.201C212.179,122.753 207.294,127.76 195.435,114.557C195.468,109.871 195.502,105.185 195.535,100.5C200.871,93.863 220.697,88.898 227.196,75.348C240.891,46.794 241.887,47.224 242.282,41.5L241.338,40.192Z" style="fill:rgb(74,82,93);"/>
            <path d="M216.891,178.435C219.925,216.766 222.014,232.842 217.777,229.136C214.789,226.521 152.399,163.218 151.017,159.634C148.851,154.015 206.694,162.804 210.369,164.726C217.387,168.395 216.737,177.444 216.891,178.435Z" style="fill:rgb(255,200,0);"/>
            <path d="M317.608,211.855C247.318,230.767 234.383,235.847 229.241,229.664C233.054,227.048 232.012,226.39 234.562,222.534C250.309,198.724 245.167,192.771 271.335,181.055C274.665,179.564 273.65,183.306 316.5,210.493L317.608,211.855Z" style="fill:rgb(30,34,41);"/>
            <path d="M241.338,40.192L242.282,41.5C241.887,47.224 240.891,46.794 227.196,75.348C220.697,88.898 200.871,93.863 195.535,100.5L195.555,99.496C194.666,98.554 194.685,98.599 193.408,98.727C167.812,89.295 167.789,89.857 158.087,85.055C172.568,76.22 183.746,71.229 241.338,40.192Z" style="fill:rgb(107,114,122);"/>
            <path d="M158.087,85.055C167.789,89.857 167.812,89.295 193.408,98.727C194.124,98.983 194.84,99.24 195.555,99.496L195.535,100.5C195.502,105.185 195.468,109.871 195.435,114.557C183.451,119.046 176.402,131.828 167.398,134.161C154.131,137.598 154.624,138.587 142.044,143.688C141.3,138.594 154.445,89.025 158.087,85.055Z" style="fill:rgb(42,47,53);"/>
        </g>
    </g>
</svg>
